<svg width="117" height="59" viewBox="0 0 117 59" fill="none" xmlns="http://www.w3.org/2000/svg">
<path d="M12.656 41V18.6H17.84V41H12.656ZM29.844 41.256C27.8173 41.256 26.2387 40.744 25.108 39.72C23.9773 38.6747 23.412 37.128 23.412 35.08V19.976H28.404V35.016C28.404 35.7413 28.596 36.3067 28.98 36.712C29.364 37.096 29.8867 37.288 30.548 37.288C31.3373 37.288 32.0093 37.0747 32.564 36.648L33.908 40.168C33.396 40.5307 32.7773 40.808 32.052 41C31.348 41.1707 30.612 41.256 29.844 41.256ZM20.756 28.008V24.168H32.692V28.008H20.756ZM44.723 41.256C42.7603 41.256 41.0323 40.872 39.539 40.104C38.067 39.336 36.9257 38.2907 36.115 36.968C35.3043 35.624 34.899 34.0987 34.899 32.392C34.899 30.664 35.2937 29.1387 36.083 27.816C36.8937 26.472 37.9923 25.4267 39.379 24.68C40.7657 23.912 42.3337 23.528 44.083 23.528C45.7683 23.528 47.283 23.8907 48.627 24.616C49.9923 25.32 51.0697 26.344 51.859 27.688C52.6483 29.0107 53.043 30.6 53.043 32.456C53.043 32.648 53.0323 32.872 53.011 33.128C52.9897 33.3627 52.9683 33.5867 52.947 33.8H38.963V30.888H50.323L48.403 31.752C48.403 30.856 48.2217 30.0773 47.859 29.416C47.4963 28.7547 46.995 28.2427 46.355 27.88C45.715 27.496 44.9683 27.304 44.115 27.304C43.2617 27.304 42.5043 27.496 41.843 27.88C41.203 28.2427 40.7017 28.7653 40.339 29.448C39.9763 30.1093 39.795 30.8987 39.795 31.816V32.584C39.795 33.5227 39.9977 34.3547 40.403 35.08C40.8297 35.784 41.4163 36.328 42.163 36.712C42.931 37.0747 43.827 37.256 44.851 37.256C45.7683 37.256 46.5683 37.1173 47.251 36.84C47.955 36.5627 48.595 36.1467 49.171 35.592L51.827 38.472C51.0377 39.368 50.0457 40.0613 48.851 40.552C47.6563 41.0213 46.2803 41.256 44.723 41.256ZM78.4145 23.528C79.7798 23.528 80.9852 23.8053 82.0305 24.36C83.0972 24.8933 83.9292 25.7253 84.5265 26.856C85.1452 27.9653 85.4545 29.3947 85.4545 31.144V41H80.4625V31.912C80.4625 30.5253 80.1745 29.5013 79.5985 28.84C79.0225 28.1787 78.2118 27.848 77.1665 27.848C76.4412 27.848 75.7905 28.0187 75.2145 28.36C74.6385 28.68 74.1905 29.1707 73.8705 29.832C73.5505 30.4933 73.3905 31.336 73.3905 32.36V41H68.3985V31.912C68.3985 30.5253 68.1105 29.5013 67.5345 28.84C66.9798 28.1787 66.1798 27.848 65.1345 27.848C64.4092 27.848 63.7585 28.0187 63.1825 28.36C62.6065 28.68 62.1585 29.1707 61.8385 29.832C61.5185 30.4933 61.3585 31.336 61.3585 32.36V41H56.3665V23.784H61.1345V28.488L60.2385 27.112C60.8358 25.9387 61.6785 25.0533 62.7665 24.456C63.8758 23.8373 65.1345 23.528 66.5425 23.528C68.1212 23.528 69.4972 23.9333 70.6705 24.744C71.8652 25.5333 72.6545 26.7493 73.0385 28.392L71.2785 27.912C71.8545 26.568 72.7718 25.5013 74.0305 24.712C75.3105 23.9227 76.7718 23.528 78.4145 23.528Z" fill="white"/>
<path d="M91.8633 41L100.887 20.584L102.231 22.824H90.1673L92.4713 20.392V26.472H87.8633V18.6H105.815V21.96L97.4953 41H91.8633Z" fill="#FAFF02"/>
</svg>
